<svg xmlns="http://www.w3.org/2000/svg" viewBox="0 0 320 64" fill="none">
  <defs>
    <linearGradient id="g1" x1="0" y1="0" x2="0" y2="1">
      <stop offset="0%" stop-color="#34d399"/>
      <stop offset="100%" stop-color="#059669"/>
    </linearGradient>
  </defs>
  <!-- DNA double helix icon -->
  <!-- Left strand -->
  <path d="M20 4 C20 4, 44 16, 44 20 S20 36, 20 40 S44 56, 44 60" stroke="url(#g1)" stroke-width="4" stroke-linecap="round" fill="none"/>
  <!-- Right strand -->
  <path d="M44 4 C44 4, 20 16, 20 20 S44 36, 44 40 S20 56, 20 60" stroke="url(#g1)" stroke-width="4" stroke-linecap="round" fill="none"/>
  <!-- Base pair rungs -->
  <line x1="26" y1="12" x2="38" y2="12" stroke="#10b981" stroke-width="3" stroke-linecap="round"/>
  <line x1="22" y1="20" x2="42" y2="20" stroke="#10b981" stroke-width="3" stroke-linecap="round"/>
  <line x1="26" y1="28" x2="38" y2="28" stroke="#10b981" stroke-width="3" stroke-linecap="round"/>
  <line x1="22" y1="36" x2="42" y2="36" stroke="#10b981" stroke-width="3" stroke-linecap="round" opacity="0.8"/>
  <line x1="26" y1="44" x2="38" y2="44" stroke="#10b981" stroke-width="3" stroke-linecap="round"/>
  <line x1="22" y1="52" x2="42" y2="52" stroke="#10b981" stroke-width="3" stroke-linecap="round" opacity="0.8"/>
  <!-- "GeneChat" wordmark -->
  <text x="68" y="44" font-family="system-ui, -apple-system, 'Segoe UI', Roboto, sans-serif" font-size="36" font-weight="700" fill="url(#g1)">GeneChat</text>
</svg>
